<svg width="143" height="252" viewBox="0 0 143 252" fill="none" xmlns="http://www.w3.org/2000/svg">
<g clip-path="url(#clip0_2_1323)">
<path d="M67.3463 203.838C68.2658 203.443 69.5268 202.863 70.9717 202.047C73.3887 200.703 74.5971 200.018 75.3327 198.938C76.2785 197.516 75.9107 196.752 77.1454 195.329C77.3293 195.092 78.1963 194.17 79.326 193.67C81.27 192.853 83.0827 193.828 86.1039 194.908C88.8887 195.909 91.0692 196.383 95.4302 197.358C97.1641 197.753 99.2658 198.148 102.313 199.096C103.18 199.36 103.863 199.597 104.336 199.755C104.389 200.308 104.415 201.731 103.495 203.021C103.075 203.601 102.497 204.075 101.578 204.497C99.4497 205.498 97.4268 205.313 95.7192 205.234C92.0412 205.076 93.5649 205.603 84.8954 205.761C83.0039 205.787 81.4539 205.787 80.3768 205.787C79.037 206.709 77.6971 207.658 76.331 208.632C74.0192 210.318 71.8124 212.004 69.7107 213.664C68.9226 210.397 68.1344 207.105 67.3463 203.838Z" fill="black"/>
<path d="M56.3913 170.119C54.4998 171.121 54.2896 171.489 47.2489 177.495C36.2676 186.847 35.0591 187.348 25.1023 196.067C15.5659 204.391 13.7795 206.472 11.9668 209.212C7.44812 216.14 6.44982 221.935 6.16084 224.754C5.76677 228.547 5.24134 233.816 8.57777 237.978C10.6795 240.586 13.4117 241.666 14.3312 242.009C17.0896 243.062 19.349 242.931 23.421 242.641C28.8328 242.246 32.9574 241.192 34.5862 240.744C36.3727 240.244 40.5235 239.006 45.7252 236.424C50.6116 234 52.7133 232.209 59.3862 227.705C62.3549 225.702 66.7421 222.778 72.2591 219.407C72.6006 216.772 72.3116 214.718 72.0226 213.427C71.3396 210.371 69.9472 208.264 68.3972 205.945C67.1362 204.049 65.9277 202.6 65.087 201.652C67.0574 200.15 69.632 197.99 72.3379 195.092C74.1506 193.143 77.0142 190.035 79.4048 185.662C82.3472 180.288 85.2896 174.861 83.3981 171.121C80.4294 165.246 66.2955 164.983 56.3913 170.119Z" fill="white"/>
<path opacity="0.18" d="M79.9302 172.991C78.4328 176.468 75.9633 181.394 72.0226 186.663C66.2955 194.276 60.5158 198.49 51.7938 204.734C27.1252 222.383 20.5048 226.414 21.2404 228.1C22.2387 230.391 36.1362 226.282 38.1591 225.676C52.9235 221.303 63.7997 214.559 70.604 209.633C68.8701 206.973 67.1362 204.312 65.4023 201.678C67.5303 200.15 70.4726 197.726 73.2311 194.118C74.7548 192.142 77.0667 189.086 78.5641 184.476C80.0879 179.892 80.1404 175.809 79.9302 172.991Z" fill="#9B9797"/>
<path d="M56.2862 170.093C46.9337 177.074 37.8176 184.397 29.0431 192.063C24.8397 195.725 20.6363 199.386 16.6956 203.311C13.2015 206.788 9.94392 210.635 7.97359 215.218C5.92444 219.96 5.34648 225.439 5.84563 230.576C6.26597 234.817 7.81597 239.085 11.6778 241.297C15.7236 243.589 20.8202 243.352 25.2863 242.878C30.777 242.325 36.1888 240.981 41.3117 238.9C52.7396 234.238 61.6981 225.518 72.4956 219.749C72.9422 219.512 72.5481 218.827 72.1015 219.064C63.0905 223.885 55.4193 230.839 46.382 235.66C41.6532 238.189 36.5566 240.033 31.3024 241.166C26.4422 242.193 20.9778 242.983 16.0388 242.035C13.727 241.587 11.4939 240.639 9.83885 238.9C8.23631 237.188 7.36935 234.949 6.92274 232.657C5.95071 227.678 6.39732 222.041 8.02613 217.247C9.65494 212.452 12.8338 208.422 16.3015 204.839C19.9007 201.125 23.8414 197.7 27.7032 194.302C37.0295 186.083 46.6973 178.233 56.6803 170.804C57.0744 170.488 56.7066 169.803 56.2862 170.093Z" fill="black"/>
<path d="M30.5404 224.096C39.1574 220.75 46.9599 215.745 54.3684 210.266C58.0201 207.579 61.6192 204.786 65.1921 201.994C68.7124 199.228 72.0751 196.304 74.8073 192.748C75.1226 192.353 74.4395 191.957 74.1243 192.353C71.3395 195.988 67.8455 198.912 64.2726 201.731C60.7523 204.497 57.2057 207.236 53.5802 209.897C46.3294 215.218 38.737 220.118 30.3303 223.358C29.8574 223.516 30.0676 224.28 30.5404 224.096Z" fill="black"/>
<path d="M64.7981 201.915C69.8684 206.183 72.5481 212.795 71.8387 219.407C71.7862 219.907 72.5743 219.907 72.6269 219.407C73.3362 212.61 70.5514 205.761 65.3497 201.362C64.9819 201.019 64.4303 201.573 64.7981 201.915Z" fill="black"/>
<path d="M71.7862 212.057C73.2837 211.609 74.5972 210.345 75.8582 209.449C77.4345 208.343 78.9845 207.236 80.5608 206.13C80.9811 205.84 80.587 205.155 80.1667 205.445C78.7481 206.446 77.3032 207.473 75.8845 208.474C74.571 209.396 73.1261 210.819 71.5761 211.293C71.0769 211.425 71.2871 212.189 71.7862 212.057Z" fill="black"/>
<path d="M67.4515 204.207C70.4201 202.969 73.1523 201.283 75.6218 199.202C76.0158 198.859 75.4379 198.306 75.0701 198.649C72.7319 200.651 70.1048 202.257 67.2676 203.443C66.7947 203.654 67.0049 204.418 67.4515 204.207Z" fill="black"/>
<path d="M75.3327 198.859C75.8318 198.859 75.8318 198.069 75.3327 198.069C74.8336 198.069 74.8336 198.859 75.3327 198.859Z" fill="black"/>
<path d="M76.2786 197.911C76.7252 196.857 77.198 195.698 78.0387 194.881C79.1684 193.775 80.5345 193.933 81.9794 194.249C84.6591 194.855 87.2862 195.698 89.9133 196.462C92.3565 197.147 94.7998 197.753 97.3218 198.043C98.793 198.201 100.028 198.385 101.341 199.044C102.313 199.518 103.154 199.992 104.231 200.097C104.73 200.15 104.73 199.36 104.231 199.307C102.786 199.175 101.657 198.174 100.29 197.727C98.9243 197.279 97.4006 197.305 95.982 197.068C92.882 196.567 89.8608 195.619 86.8658 194.723C85.3947 194.302 83.9235 193.88 82.426 193.538C81.3226 193.301 80.1667 193.011 79.0633 193.354C77.1455 193.933 76.226 195.988 75.5167 197.7C75.3328 198.174 76.0947 198.385 76.2786 197.911Z" fill="black"/>
<path d="M80.4557 206.709C86.0777 205.866 91.6472 205.735 97.3217 205.629C99.2921 205.603 101.394 205.366 102.97 204.075C104.31 202.969 105.072 201.362 104.704 199.649C104.599 199.149 103.837 199.36 103.942 199.86C104.441 202.257 102.287 204.022 100.159 204.549C97.9785 205.076 95.6141 204.813 93.3811 204.865C88.9675 204.944 84.6065 205.313 80.2455 205.972C79.7464 206.024 79.9828 206.788 80.4557 206.709Z" fill="black"/>
<path d="M100.396 201.467C102.34 200.071 104.31 198.675 106.254 197.279C106.385 196.383 106.806 194.434 108.408 192.774C108.881 192.273 109.984 191.114 111.64 190.798C113.373 190.456 114.713 191.246 116.211 191.931C118.628 193.037 120.966 193.459 125.59 194.355C129.241 195.039 131.08 195.382 133.707 195.25C137.28 195.039 139.829 194.091 141.352 195.593C141.51 195.751 142.167 196.462 142.114 197.331C142.035 198.438 140.853 199.149 139.907 199.702C135.783 202.073 133.471 202.758 133.471 202.758C127.639 204.47 124.696 205.339 122.174 205.55C120.125 205.708 117.209 205.787 113.689 205.234C112.664 208.764 109.564 211.029 106.648 210.845C102.891 210.608 99.4235 206.367 100.396 201.467Z" fill="black"/>
<path d="M62.67 178.18C63.248 176.415 64.3251 174.176 66.348 173.438C67.6615 172.964 68.87 173.28 69.2641 173.386C71.7073 173.992 76.7251 173.122 86.7344 171.41C91.6996 170.567 97.9785 169.329 105.203 167.485C105.229 168.828 105.203 170.593 105.124 172.648C104.94 177.258 104.467 180.735 104.362 181.552C103.916 184.818 103.128 190.245 100.737 196.831C100.133 198.517 99.5284 199.913 99.1081 200.861C100.133 201.335 101.236 201.968 102.313 202.863C106.753 206.419 108.04 211.451 108.461 213.585C107.83 214.349 106.884 215.481 105.676 216.772C100.789 221.988 96.2708 224.912 87.6539 230.26C82.3471 233.552 78.459 235.95 72.2327 239.638C64.6666 244.116 58.5454 247.593 50.9268 249.779C49.0353 250.333 46.0404 251.07 42.2573 250.675C40.4183 250.491 37.1082 250.148 33.9293 247.83C29.8573 244.88 28.57 240.56 28.0446 238.663C26.8624 234.422 27.309 230.444 28.4124 226.308C29.1743 223.41 31.9327 213.795 41.5217 202.969C43.4395 200.808 48.9039 195.935 59.7802 186.188C62.4073 183.844 64.5615 181.921 66.0064 180.656C64.903 179.813 63.7997 178.997 62.67 178.18Z" fill="white"/>
<path opacity="0.18" d="M98.3989 170.883C97.7947 173.201 96.8226 176.547 95.3514 180.472C81.9269 216.14 51.9252 231.55 54.3684 235.396C56.1548 238.241 73.2836 231.155 85.6311 223.7C94.8786 218.116 101.762 212.136 106.359 207.631C105.623 206.551 104.494 205.076 102.786 203.68C101.131 202.336 99.5548 201.52 98.3726 201.019C99.187 199.834 100.264 198.042 101.184 195.751C101.788 194.275 102.313 192.695 102.996 189.481C104.1 184.397 104.546 180.367 104.678 179.102C104.993 176.073 105.282 172.148 105.229 167.511C102.944 168.618 100.684 169.75 98.3989 170.883Z" fill="#9B9797"/>
<path d="M104.835 167.485C104.862 172.464 104.546 177.443 103.863 182.395C103.233 186.847 102.445 191.43 100.816 195.645C99.0557 200.203 96.0345 203.522 92.3828 206.657C88.6523 209.844 84.8956 212.979 81.1388 216.114C76.8303 219.722 72.4956 223.305 68.1871 226.914C67.793 227.23 68.3447 227.783 68.7388 227.467C76.6464 220.882 84.554 214.322 92.4091 207.658C95.8769 204.707 99.0294 201.651 100.921 197.41C102.76 193.301 103.653 188.796 104.362 184.371C105.256 178.786 105.676 173.149 105.624 167.485C105.624 166.958 104.835 166.958 104.835 167.485Z" fill="black"/>
<path d="M63.1167 178.918C64.1939 179.497 65.271 180.077 66.3744 180.656C66.821 180.894 67.215 180.209 66.7684 179.972C65.6913 179.392 64.6142 178.812 63.5108 178.233C63.0642 177.996 62.6701 178.681 63.1167 178.918Z" fill="black"/>
<path d="M66.3743 180.34C57.0217 187.98 47.1963 195.54 39.3938 204.813C32.6684 212.794 27.1252 222.91 27.1515 233.631C27.1515 238.347 28.4388 243.273 31.9065 246.618C35.3743 249.99 40.3921 251.307 45.1209 251.07C50.9006 250.781 56.3912 248.489 61.5404 245.96C67.0573 243.247 72.2853 240.033 77.5395 236.845C88.3632 230.26 100.448 224.122 108.566 214.085C108.881 213.69 108.329 213.137 108.014 213.532C101.21 221.962 91.6471 227.362 82.531 232.894C77.5132 235.95 72.548 239.058 67.4251 241.956C62.4073 244.801 57.1794 247.514 51.6362 249.121C46.4345 250.622 40.6286 250.939 35.7159 248.331C30.9871 245.854 28.5701 241.06 28.071 235.844C27.0989 225.307 32.3794 214.823 38.7633 206.815C46.7235 196.831 57.1268 188.875 66.9522 180.867C67.32 180.577 66.7683 180.024 66.3743 180.34Z" fill="black"/>
<path d="M98.9243 201.177C103.863 203.548 107.305 208.237 108.119 213.664C108.198 214.164 108.96 213.953 108.881 213.453C108.067 207.842 104.441 202.916 99.3446 200.492C98.8718 200.282 98.4777 200.966 98.9243 201.177Z" fill="black"/>
<path d="M100.5 201.862C101.551 201.441 102.392 200.729 103.285 200.045C104.336 199.228 105.413 198.438 106.464 197.621C106.858 197.305 106.464 196.62 106.07 196.936C105.124 197.647 104.178 198.359 103.233 199.096C102.313 199.807 101.394 200.677 100.29 201.098C99.8437 201.283 100.028 202.047 100.5 201.862Z" fill="black"/>
<path d="M106.858 197.305C107.384 195.751 108.014 194.223 108.855 192.8C110.011 190.851 111.745 191.062 113.689 191.562C116.71 192.326 119.6 193.485 122.647 194.17C128.558 195.487 134.627 195.935 140.669 195.54C141.168 195.513 141.168 194.723 140.669 194.75C133.55 195.224 126.378 194.486 119.495 192.537C117.84 192.063 116.237 191.457 114.582 190.983C113.321 190.614 111.823 190.192 110.51 190.456C109.328 190.693 108.645 191.588 108.067 192.589C107.252 194.012 106.622 195.54 106.096 197.094C105.939 197.568 106.701 197.779 106.858 197.305Z" fill="black"/>
<path d="M107.988 210.028C109.958 208.527 111.902 207.025 113.873 205.524C114.267 205.208 113.873 204.523 113.478 204.839C111.508 206.34 109.564 207.842 107.594 209.343C107.2 209.66 107.594 210.344 107.988 210.028Z" fill="black"/>
<path d="M113.846 205.339C120.256 206.736 126.798 205.682 132.867 203.364C135.625 202.31 138.778 201.125 141.142 199.333C142.797 198.095 143.034 195.724 140.853 194.881C140.38 194.697 140.17 195.461 140.643 195.645C141.825 196.093 141.956 197.384 141.142 198.28C140.748 198.727 140.196 199.017 139.671 199.333C138.594 199.939 137.49 200.492 136.387 201.019C134.049 202.126 131.632 203.074 129.136 203.812C124.223 205.234 119.074 205.708 114.03 204.602C113.557 204.47 113.347 205.234 113.846 205.339Z" fill="black"/>
<path d="M45.3837 91.5657C49.3769 88.2465 55.3405 84.2424 63.3006 81.8716C67.0311 80.7652 71.7074 79.3954 77.9074 79.9222C87.4175 80.7388 93.959 85.4278 96.2709 87.1401C99.8963 89.8007 102.366 92.6194 103.89 94.5951C104.179 113.061 104.573 131.554 105.072 150.02C105.229 155.71 105.387 161.426 105.571 167.116C101.84 169.435 96.6124 172.042 89.9921 173.57C74.4921 177.127 61.593 172.385 56.365 170.093C56.3388 165.43 56.0498 158.423 54.6311 150.02C52.3193 136.216 48.7201 130.658 46.4608 118.778C45.3311 112.64 44.254 103.42 45.3837 91.5657Z" fill="#0A3871"/>
<path d="M92.8819 96.1229C91.5946 97.5454 91.3582 99.1523 91.437 105.316C91.4896 111.797 91.8311 116.222 92.0413 121.359C92.1989 125.073 92.3302 128.024 92.2514 131.87C92.1726 136.717 91.8574 140.695 91.5684 143.355C88.9938 146.253 86.7082 148.518 85.0006 150.152C81.165 153.813 76.9879 157.765 70.8141 161.479C68.3709 162.928 66.2692 163.982 64.8506 164.64C63.5633 164.429 62.1184 164.113 60.5421 163.718C56.8116 162.77 55.2616 161.927 52.4506 161.927C51.6099 161.927 48.9565 161.927 48.6938 162.875C48.4574 163.665 49.9286 164.904 51.0845 165.509C52.1616 166.063 52.6345 165.905 53.7116 166.405C54.9201 166.985 55.7082 167.828 56.1811 168.46C55.6819 169.171 54.9201 170.251 54.0794 171.647C53.1074 173.281 52.8972 173.913 51.7675 175.862C50.5853 177.917 49.9811 178.944 49.4557 179.471C48.6413 180.235 48.1421 180.393 44.4904 182.026C40.865 183.66 40.2345 184.028 40.2345 184.476C40.2345 184.924 40.9438 185.029 43.7548 186.241C46.0404 187.216 46.2506 187.427 47.4328 187.769C48.904 188.19 49.7972 188.454 50.8743 188.217C52.5819 187.874 53.6853 186.584 54.1582 185.899C54.3947 186.109 54.9726 186.557 55.7345 186.584C56.3387 186.584 56.8379 186.346 57.2319 186.03C58.887 184.845 59.7014 182.659 61.3303 180.209C61.6192 179.787 62.6438 178.233 64.2989 176.494C65.3235 175.388 66.2692 174.571 66.9523 174.018C67.8718 173.807 69.2379 173.491 70.8667 173.017C77.198 171.199 81.7692 169.013 85.6048 167.169C87.8379 166.089 90.3599 164.666 95.3777 161.848C99.7387 159.398 101.998 158.028 103.995 155.341C104.205 155.051 105.282 153.603 106.228 151.469C106.517 150.81 107.541 148.466 108.093 144.356C108.356 142.539 108.356 141.538 108.382 135.848C108.434 128.603 108.434 129.473 108.434 128.735C108.408 118.119 107.857 119.067 107.673 109.321C107.646 108.399 107.62 105.896 106.858 102.735C106.044 99.3103 105.019 97.7825 104.441 97.0185C103.706 96.0438 102.812 94.8848 101.289 94.2262C98.504 92.9881 94.7997 93.9891 92.8819 96.1229Z" fill="white"/>
<path opacity="0.25" d="M101.315 94.1999C101.946 96.281 102.707 99.284 103.233 102.919C103.863 107.319 104.1 112.166 102.681 124.836C101.499 135.426 100.921 140.721 99.3972 145.673C97.2167 152.733 95.6404 157.87 90.8328 161.927C87.7328 164.535 84.3438 165.747 77.5396 168.144C72.5481 169.909 68.2659 170.962 65.3235 171.621C63.2218 174.466 60.0955 178.075 55.6557 181.499C52.1879 184.186 48.8515 186.03 46.093 187.295C46.4871 187.558 48.1159 188.612 50.3227 188.322C52.8972 187.98 54.2896 186.136 54.5261 185.793C55.0252 186.162 55.7608 186.557 56.5752 186.426C58.2566 186.162 59.1498 183.765 59.5964 182.685C60.5684 180.446 62.5125 177.364 66.8735 173.992C69.7633 173.228 73.6777 172.069 78.2226 170.33C84.554 167.88 88.8099 165.509 93.3811 162.954C100.711 158.845 102.366 157.159 103.574 155.526C105.781 152.549 106.701 149.493 107.095 148.15C107.804 145.752 107.935 143.066 108.198 137.823C108.382 133.925 108.382 130.922 108.382 128.656C108.382 124.757 108.303 121.86 108.224 119.357C108.119 115.722 107.909 111.454 107.384 106.344C106.99 102.63 106.701 101.154 105.86 99.4948C104.573 96.8605 102.655 95.1746 101.315 94.1999Z" fill="#9B9797"/>
<path d="M92.4879 96.0175C91.1218 99.442 90.9642 103.13 91.043 106.792C91.1218 110.822 91.332 114.826 91.5159 118.857C91.8837 127.023 92.1464 135.215 91.1743 143.355C91.1218 143.856 91.9099 143.856 91.9625 143.355C92.9082 135.4 92.6981 127.365 92.3303 119.383C92.1464 115.432 91.9362 111.481 91.8311 107.503C91.726 103.683 91.8049 99.8371 93.2498 96.2282C93.4337 95.754 92.6718 95.5433 92.4879 96.0175Z" fill="black"/>
<path d="M92.6981 142.67C90.2811 144.014 88.337 145.963 86.4718 147.992C84.4489 150.178 82.426 152.312 80.1667 154.261C75.543 158.292 70.3413 161.611 64.7718 164.192C64.2989 164.403 64.7193 165.088 65.1659 164.877C70.5252 162.401 75.543 159.24 80.0354 155.42C82.2684 153.55 84.3176 151.495 86.2879 149.361C88.3371 147.122 90.3862 144.857 93.0659 143.382C93.5387 143.092 93.1447 142.407 92.6981 142.67Z" fill="black"/>
<path d="M64.9556 164.245C62.0658 163.639 59.1497 163.007 56.2599 162.348C54.815 162.032 53.3438 161.637 51.8726 161.374C50.9532 161.216 49.9811 161.137 49.1667 161.663C47.9057 162.48 47.9057 163.982 49.0354 164.877C49.8498 165.536 50.9006 165.826 51.8726 166.142C53.4489 166.642 54.7887 167.274 55.8133 168.618C56.1286 169.013 56.8116 168.618 56.4964 168.223C55.5769 167.037 54.4735 166.194 53.0548 165.694C52.0828 165.351 51.0057 165.141 50.1125 164.64C49.482 164.298 48.6676 163.771 49.1404 162.823C49.5871 161.927 50.7167 162.006 51.5311 162.138C53.7116 162.454 55.8921 163.086 58.0726 163.586C60.3057 164.087 62.5387 164.561 64.7718 165.035C65.2446 165.114 65.4548 164.35 64.9556 164.245Z" fill="black"/>
<path d="M55.1828 168.75C54.0269 170.883 52.8447 172.991 51.6888 175.125C51.1108 176.152 50.6116 177.258 49.9286 178.259C49.2193 179.287 48.2735 179.814 47.1701 180.34C45.0947 181.315 42.8616 182.105 40.865 183.238C39.9718 183.765 39.3938 184.713 40.1557 185.635C41.1014 186.768 42.9667 186.32 44.2277 186.109C45.9616 185.82 47.6167 185.24 49.193 184.503C52.4769 182.922 55.2617 180.446 57.2583 177.39C57.5472 176.969 56.8642 176.573 56.5752 176.995C54.815 179.735 52.3718 181.947 49.5082 183.475C48.1421 184.186 46.671 184.766 45.1735 185.108C44.3328 185.319 43.4396 185.504 42.5464 185.53C41.732 185.583 41.5218 185.688 41.1277 184.871C40.6286 184.397 40.6811 184.081 41.2591 183.923C41.443 183.844 41.6006 183.765 41.7845 183.686C43.4659 182.896 45.1735 182.132 46.8548 181.341C48.1684 180.736 49.4557 180.209 50.3489 179.023C51.3998 177.627 52.1354 175.968 52.976 174.44C53.9481 172.675 54.9201 170.91 55.8659 169.171C56.1023 168.697 55.4193 168.302 55.1828 168.75Z" fill="black"/>
<path d="M67.1887 174.519C74.2031 172.543 81.0074 169.909 87.5226 166.642C90.754 165.009 93.9065 163.244 96.9803 161.295C99.7387 159.556 102.655 157.791 104.625 155.131C104.914 154.709 104.231 154.314 103.942 154.735C101.893 157.528 98.6879 159.345 95.7981 161.137C92.8557 162.954 89.8082 164.64 86.7082 166.194C80.3769 169.329 73.7828 171.858 66.9786 173.781C66.5057 173.886 66.7159 174.65 67.1887 174.519Z" fill="black"/>
<path d="M93.0133 96.7288C95.1938 92.435 100.79 93.4097 103.548 96.4654C106.858 100.153 107.016 105.554 107.384 110.243C108.172 120.49 108.329 130.816 107.699 141.063C107.384 146.042 106.648 151.311 103.338 155.262C103.023 155.657 103.574 156.211 103.89 155.815C106.858 152.233 107.883 147.702 108.303 143.171C108.855 137.376 108.855 131.501 108.802 125.679C108.75 119.594 108.461 113.483 107.909 107.424C107.489 102.867 106.674 97.8352 102.918 94.8058C99.7125 92.2242 94.3532 92.3033 92.304 96.3337C92.0939 96.7815 92.7769 97.1767 93.0133 96.7288Z" fill="black"/>
<path d="M43.5184 186.557C45.4362 187.427 47.7481 188.744 49.9286 188.744C52.0303 188.717 53.5803 186.979 54.999 185.662C59.071 181.868 63.1431 178.075 67.2151 174.308C67.5829 173.965 67.0312 173.412 66.6634 173.755C63.2218 176.969 59.7803 180.156 56.3388 183.37C54.8151 184.766 53.2388 186.768 51.321 187.637C49.0617 188.665 45.9617 186.821 43.9388 185.899C43.4659 185.662 43.0718 186.346 43.5184 186.557Z" fill="black"/>
<path d="M54.2108 186.004C55.0777 187.637 56.9955 186.979 57.9675 185.846C59.8853 183.581 61.3828 180.841 63.0116 178.391C63.3006 177.97 62.6175 177.575 62.3286 177.996C61.304 179.524 60.2794 181.052 59.2548 182.58C58.6769 183.423 56.1286 187.98 54.8938 185.609C54.6574 185.161 53.9743 185.556 54.2108 186.004Z" fill="black"/>
<path d="M48.1159 184.713C48.904 185.135 49.876 185.556 50.743 185.135C51.1896 184.898 51.3735 184.529 51.5837 184.107C51.9515 183.396 52.3193 182.843 53.0023 182.395C53.4227 182.105 53.0286 181.42 52.6083 181.71C51.9778 182.132 51.4523 182.659 51.0845 183.344C50.8218 183.844 50.6642 184.45 49.9811 184.503C49.482 184.555 48.9303 184.239 48.5099 184.028C48.0896 183.818 47.6693 184.476 48.1159 184.713Z" fill="black"/>
<path d="M42.7302 34.1912C41.8107 36.0616 40.8912 39.1963 40.6023 40.2237C40.1819 41.6989 39.2362 45.1498 38.7107 49.7334C38.4218 52.2623 38.1065 55.0283 38.3692 58.6899C38.5006 60.4285 38.6845 63.1681 39.709 66.5663C40.3921 68.8845 41.3904 72.23 44.0963 75.6546C46.4607 78.6313 49.1667 80.5016 51.3209 81.6343C52.687 81.6607 54.3421 81.5817 56.1811 81.2392C59.4912 80.607 62.0658 79.3689 63.7997 78.3678C64.0362 79.7113 64.3514 81.1338 64.7455 82.609C65.5599 85.6648 66.5582 88.3517 67.5565 90.6699C68.6336 90.4855 69.9209 90.1694 71.287 89.5371C75.6218 87.5087 77.6972 83.7681 78.4328 82.2139C78.0387 80.686 77.7234 79.0264 77.4344 77.3141C76.4361 70.9129 76.6989 65.1965 77.3294 60.5602C77.8811 60.7446 78.7743 60.9817 79.8777 60.929C82.0319 60.7973 83.5031 59.6119 84.2387 58.9797C84.8692 58.4528 87.7328 55.8976 87.6277 52.1042C87.6014 51.2086 87.5489 49.0221 85.9989 47.8367C84.554 46.7567 82.6099 47.1518 81.1912 47.4416C79.5624 47.784 78.354 48.4689 77.6184 48.9431C78.1701 47.1255 79.326 42.4628 77.6184 37.0362C77.2506 35.8772 74.8074 28.5012 67.6091 25.3138C57.8362 20.9409 46.0929 27.4212 42.7302 34.1912Z" fill="white"/>
<path opacity="0.24" d="M72.4166 34.3493C72.6268 36.7991 72.7844 40.3554 72.4166 44.5702C71.287 57.3464 66.2429 66.2239 64.9293 68.4367C62.9327 71.8085 59.5175 76.7083 54.0531 81.529C55.6819 81.3182 57.5472 80.9495 59.5438 80.2382C65.0344 78.2888 68.7124 74.9433 70.709 72.7569C70.8666 75.6809 71.3658 79.2372 72.548 83.1359C73.0734 84.7955 73.6514 86.3234 74.2556 87.6932C75.648 85.8755 77.0141 84.0579 78.4065 82.2139C78.1175 80.5016 77.8548 78.684 77.6709 76.8137C77.0666 71.15 77.0666 65.9341 77.3819 61.2978C78.5641 61.3242 80.2717 61.2188 82.0844 60.5075C90.0183 57.3464 94.5369 44.781 90.2547 37.9319C90.0708 37.6421 89.1251 36.1669 87.181 34.8498C81.1649 30.793 73.52 33.8751 72.4166 34.3493Z" fill="#9B9797"/>
<path d="M40.8124 39.4335C40.287 37.6158 39.5514 34.1386 40.3133 29.8711C40.5497 28.5539 41.3641 24.3128 44.254 20.9673C48.4836 16.0939 53.7904 17.0159 60.6735 14.5397C65.0345 12.9854 71.0243 9.71894 77.0929 2.02689C76.5412 4.87189 75.9895 7.74324 75.4378 10.5883C76.3836 10.8517 79.5624 11.5366 82.82 9.92969C88.2319 7.26908 88.7048 0.841466 88.731 0.551697C89.3878 2.02689 90.57 5.29338 90.0446 9.45552C89.6768 12.3005 88.6522 14.4343 87.9166 15.7251C88.2319 16.0675 89.9133 17.8061 91.8573 17.5427C94.2217 17.2266 96.4285 13.9865 95.798 9.79797C96.3234 11.3522 96.9539 13.9074 96.7963 17.0422C96.5861 20.8619 95.3251 23.7332 94.4844 25.2875C94.6946 25.4719 96.0344 26.6836 97.926 26.4465C99.581 26.2358 101 25.024 101.551 23.3118C101.42 25.0767 101.105 27.632 100.08 30.556C98.6878 34.5074 97.5319 34.8235 96.9539 37.6422C96.0344 42.0677 98.3988 43.5693 97.7683 47.5207C97.2429 50.8399 95.0887 52.9209 92.3565 55.5815C87.3912 60.4022 81.6904 63.0102 76.909 64.459C77.1192 62.9838 77.3556 61.5086 77.5658 60.0334C78.17 60.4022 79.2209 60.9027 80.5345 60.8501C83.2141 60.7447 84.8955 58.3475 85.7887 57.0567C86.8133 55.6079 88.5209 53.1317 87.6014 50.471C86.8395 48.311 84.8166 47.4153 84.6327 47.3363C82.2683 46.3353 79.2209 47.2309 77.2506 49.6544C76.1472 45.3079 75.07 40.9877 73.9667 36.6411C70.2362 34.2703 66.5319 31.9258 62.8014 29.555C60.9624 29.2125 55.9446 28.5276 50.3226 31.0302C44.648 33.5591 41.7582 37.8529 40.8124 39.4335Z" fill="#0A3871"/>
<path d="M40.4183 39.3281C38.1853 47.7051 36.8454 56.6089 38.8946 65.1703C40.576 72.1247 44.8319 80.0539 52.0828 82.3193C52.5557 82.4774 52.7658 81.7134 52.2929 81.5554C45.0158 79.2899 40.9438 71.0447 39.4463 64.0902C37.6861 55.924 39.026 47.4943 41.1539 39.5389C41.3116 39.0647 40.5497 38.854 40.4183 39.3281Z" fill="black"/>
<path d="M52.6608 82.1876C64.7718 80.9495 74.8862 72.1774 77.7234 60.2705C77.8285 59.77 77.0929 59.5592 76.9616 60.0597C74.2031 71.5715 64.4565 80.1855 52.6608 81.3973C52.1616 81.45 52.1353 82.2403 52.6608 82.1876Z" fill="black"/>
<path d="M77.0404 60.4812C82.4523 63.8004 87.7328 56.8459 88.0743 51.9725C88.2582 49.3909 87.076 47.4152 84.5277 46.6776C82.1633 45.9927 79.5887 46.704 77.9074 48.4953C77.5659 48.8641 78.1175 49.4173 78.4591 49.0485C79.8514 47.5469 81.9531 46.8884 83.976 47.3362C85.0268 47.5733 86.1828 48.1528 86.787 49.1012C87.4438 50.1285 87.365 51.551 87.2074 52.6838C86.5769 56.7669 82.0582 62.615 77.4345 59.7699C77.0142 59.5329 76.5938 60.2178 77.0404 60.4812Z" fill="black"/>
<path d="M76.9879 60.4285C75.9633 67.7254 76.3311 75.1277 78.065 82.293C78.1964 82.7935 78.9582 82.5827 78.8269 82.0822C77.1193 75.0487 76.7515 67.7781 77.7498 60.6393C77.8023 60.1388 77.0404 59.928 76.9879 60.4285Z" fill="black"/>
<path d="M63.4056 78.4733C64.22 82.7408 65.481 86.8766 67.2149 90.8806C67.4251 91.3548 68.1081 90.9333 67.8979 90.4855C66.1903 86.5604 64.9556 82.4773 64.1674 78.2625C64.0623 77.762 63.3267 77.9727 63.4056 78.4733Z" fill="black"/>
<path d="M67.7667 90.9861C72.837 90.1694 77.1193 86.6659 79.0371 81.8978C79.221 81.4237 78.4591 81.2129 78.2752 81.6871C76.4625 86.218 72.3379 89.4582 67.5565 90.2221C67.0574 90.3011 67.2676 91.0651 67.7667 90.9861Z" fill="black"/>
<path d="M64.0361 79.3952C65.1132 79.4478 65.8488 78.7103 66.6632 78.078C67.7403 77.2351 68.7649 76.3394 69.7107 75.3911C71.4709 73.6261 72.8895 71.5977 73.809 69.2796C73.9929 68.8054 73.231 68.5947 73.0471 69.0689C72.2327 71.1236 70.9717 72.9412 69.448 74.5218C68.7649 75.2594 68.0293 75.9179 67.2675 76.5765C66.4268 77.2878 65.2183 78.6576 64.0361 78.6049C63.537 78.5785 63.537 79.3688 64.0361 79.3952Z" fill="black"/>
<path d="M64.0887 78.9739C66.3217 77.5251 68.3971 75.8655 70.3412 74.0478C70.709 73.7054 70.1573 73.1258 69.7895 73.4946C67.898 75.2859 65.8751 76.8928 63.6946 78.3153C63.248 78.5524 63.6683 79.2373 64.0887 78.9739Z" fill="black"/>
<path d="M48.6413 40.856C47.1701 47.5734 46.3294 54.3961 46.1455 61.2716C46.1455 61.6667 46.6709 61.7984 46.8811 61.4823C47.9057 59.8491 48.9302 58.1895 49.9548 56.5562C50.2175 56.1347 49.5345 55.7133 49.2718 56.1611C48.2472 57.7943 47.2226 59.4539 46.1981 61.0872C46.4345 61.1662 46.6972 61.2189 46.9336 61.2979C47.1175 54.5015 47.9582 47.7314 49.4031 41.0931C49.5082 40.5662 48.7463 40.3555 48.6413 40.856Z" fill="black"/>
<path d="M49.6921 71.1764C49.0616 69.9909 48.6412 68.7265 48.5361 67.383C48.4573 66.4347 48.6675 62.5886 50.4539 64.1165C51.3997 64.9331 51.2683 66.7244 51.2946 67.9099C51.2946 68.4631 51.2946 69.0426 51.2421 69.5958C51.2158 69.9909 51.1633 70.3861 51.0845 70.7549C50.4014 71.229 49.876 71.2027 49.5344 70.7022C49.1929 70.3334 48.615 70.8866 48.9828 71.2554C50.1124 72.4145 51.5836 72.4672 51.8989 70.6495C52.1353 69.3587 52.1353 67.9889 52.0302 66.6981C51.9514 65.6707 51.9514 64.1955 51.1895 63.4053C50.0599 62.2462 48.4573 63.3262 48.0107 64.5643C47.1963 66.7771 47.9844 69.5695 49.0353 71.5715C49.2455 72.0193 49.9285 71.6242 49.6921 71.1764Z" fill="black"/>
<path d="M55.1302 47.4679C55.9183 51.1822 60.7785 51.472 62.2234 48.0475C62.4073 47.5733 61.6454 47.3625 61.4615 47.8367C60.2793 50.629 56.4963 50.1022 55.892 47.2572C55.7869 46.783 55.0251 46.9674 55.1302 47.4679Z" fill="black"/>
<path d="M53.5803 38.3271C54.5786 36.088 57.1531 35.0079 59.5175 35.5084C61.9607 36.0353 63.826 37.932 65.0345 40.013C65.2972 40.4609 65.9802 40.0657 65.7175 39.6179C64.3251 37.2207 62.1184 35.0869 59.2811 34.6655C56.7328 34.2967 54.0006 35.5084 52.8972 37.9056C52.6871 38.4061 53.3701 38.8013 53.5803 38.3271Z" fill="black"/>
<path d="M38.1853 39.1964C38.8946 37.7212 40.1293 36.1143 41.942 36.1407C43.6759 36.167 44.9369 37.6949 45.8039 39.0384C46.0666 39.4599 46.7497 39.0647 46.487 38.6432C45.4886 37.0363 43.9912 35.3767 41.942 35.3504C39.8403 35.3241 38.3691 37.0627 37.5285 38.8013C37.292 39.2491 37.9751 39.6443 38.1853 39.1964Z" fill="black"/>
<path d="M42.8353 51.1296C43.2996 51.1296 43.676 49.3959 43.676 47.2573C43.676 45.1186 43.2996 43.3849 42.8353 43.3849C42.371 43.3849 41.9946 45.1186 41.9946 47.2573C41.9946 49.3959 42.371 51.1296 42.8353 51.1296Z" fill="black"/>
<path d="M45.2523 92.8037C45.1735 93.7783 45.0684 95.1218 45.0159 96.676C44.7795 101.997 44.9896 106.028 45.0684 107.108C45.2786 110.611 45.7515 115.195 46.8549 120.516C45.804 121.728 44.2278 123.519 42.2049 125.627C38.3693 129.657 36.399 131.712 33.2464 133.846C29.7261 136.216 27.2828 136.954 25.9693 137.296C24.3142 137.692 22.7379 138.06 20.8201 137.639C17.6939 136.928 15.8286 134.609 15.1456 133.714C13.4117 131.501 13.0176 129.341 12.3083 125.126C11.7828 122.044 11.6778 119.7 11.5201 115.169C11.4413 113.008 11.3362 110.374 11.3888 106.844C11.4413 102.867 11.6515 98.1512 12.2295 92.8827C12.4922 90.5119 12.86 87.5878 13.4379 84.2687C12.9913 83.6364 12.5184 83.0042 12.0193 82.3456C11.4939 81.6607 10.9947 81.0022 10.4693 80.3436C9.12945 81.4763 7.81589 82.6354 6.47606 83.7681C6.13454 83.8999 5.53031 84.1106 4.79471 84.0316C3.40234 83.8999 2.58793 82.9252 2.29895 82.6091C1.01166 81.1339 1.19556 79.2635 1.2481 78.8948C3.06082 76.9191 4.87352 74.9697 6.71251 72.994C6.73878 71.8613 6.89641 70.3861 7.34302 68.7528C7.68455 67.5411 8.10488 66.5401 8.49895 65.6971C8.84047 65.0122 9.31336 64.2482 9.9176 63.4843C10.9947 62.0618 12.1506 61.0608 13.0964 60.3759C12.3345 60.7183 12.1506 60.7183 12.0981 60.6657C11.9667 60.4549 13.2015 58.9007 14.9354 58.7426C15.9074 58.6373 16.6693 59.0061 17.1947 59.2431C18.0091 59.6383 18.5608 60.1388 18.9023 60.5076C20.5312 59.1114 22.16 57.7153 23.7888 56.3455C24.3667 56.6879 24.9447 57.083 25.5227 57.4782C26.8625 58.4002 28.071 59.3222 29.1481 60.2178C28.754 60.7183 28.2549 61.2715 27.6244 61.8247C26.5735 62.7467 25.5227 63.2999 24.7083 63.6687C25.2074 63.8268 26.1006 64.1956 26.5473 65.0649C26.9939 65.9078 26.81 66.8298 26.5473 67.9889C26.3634 68.7792 26.1269 69.4114 25.943 69.8329C26.0481 70.9393 26.1006 72.4408 25.7854 74.1267C25.2862 76.8927 24.1303 78.9474 23.3422 80.1329C23.3159 81.1602 23.2896 82.7671 23.3422 84.7428C23.5523 92.8827 24.7345 97.6507 25.4964 103.657C25.943 107.081 26.3896 112.166 26.2583 118.567C26.8625 118.172 27.7295 117.539 28.7015 116.723C31.171 114.642 32.7473 112.561 34.8227 109.505C36.8718 106.528 38.2117 104.315 40.0244 101.365C41.154 99.442 42.9667 96.518 45.2523 92.8037Z" fill="white"/>
<path opacity="0.24" d="M21.3718 68.7528C20.8201 69.9646 20.2684 71.2027 19.7167 72.4671C18.1142 76.2605 16.8006 79.8958 15.7235 83.373C15.487 88.8523 15.3557 93.4359 15.2506 96.7551C15.1193 101.787 15.4345 107.793 16.0125 119.805C16.2489 124.757 16.4591 127.76 18.771 129.947C21.1879 132.212 24.5506 132.265 26.4421 132.265C36.5303 132.239 44.0701 123.625 46.1455 121.122C43.3345 125.916 40.1294 129.051 37.9489 130.895C35.4794 132.976 32.3006 135.584 27.3616 136.875C23.1845 137.981 21.293 137.744 20.7938 137.639C17.1947 136.77 15.1981 133.766 14.4887 132.739C12.7811 130.184 12.2294 127.523 11.9142 121.807C11.5989 115.933 11.9404 114.378 12.0455 106.291C12.1243 98.5727 11.8354 96.3863 12.4133 91.0387C12.7549 87.9039 13.1752 85.3223 13.5167 83.5837C12.4921 82.5037 11.4676 81.4236 10.443 80.3699C9.57604 81.1339 8.68281 81.8715 7.78959 82.6354C7.21163 83.1359 6.6074 83.6364 6.02944 84.1106C5.50401 84.1633 4.74215 84.1369 3.92774 83.7945C1.82605 82.8988 0.512491 80.2909 1.16927 79.3952C1.58961 78.7894 2.69299 79.2635 4.21672 79.2635C6.84384 79.2899 8.604 77.9464 12.0981 75.4175C14.5676 73.5999 17.4048 71.5715 21.3718 68.7528Z" fill="#9B9797"/>
<path d="M44.9107 92.5929C38.8421 100.996 34.3497 110.638 26.6785 117.803C26.3107 118.145 26.8624 118.698 27.2302 118.356C34.9539 111.138 39.4726 101.444 45.5937 92.988C45.909 92.5929 45.226 92.1977 44.9107 92.5929Z" fill="black"/>
<path d="M22.3176 138.245C32.721 137.56 40.182 128.814 46.4345 121.386C46.7498 120.99 46.1981 120.437 45.8828 120.832C39.8142 128.103 32.4582 136.796 22.3438 137.481C21.8184 137.481 21.8184 138.271 22.3176 138.245Z" fill="black"/>
<path d="M17.3786 64.0376C17.4311 66.1186 18.7972 67.9099 20.7938 68.4894C21.293 68.6212 21.5031 67.8572 21.004 67.7255C19.3489 67.2513 18.2192 65.7498 18.1667 64.0376C18.1404 63.537 17.3523 63.537 17.3786 64.0376Z" fill="black"/>
<path d="M18.193 63.8004C18.4557 61.5086 22.5277 63.1682 23.6311 63.7478C24.7082 64.301 25.7854 64.8542 26.0218 66.1713C26.2057 67.1723 25.8904 68.226 25.6277 69.2007C25.4964 69.7012 26.2582 69.9119 26.3896 69.4114C26.7574 68.0943 27.1515 66.5928 26.5998 65.302C26.0743 63.9848 24.6294 63.379 23.4472 62.7994C22.2388 62.2199 20.9252 61.7984 19.5591 61.9565C19.0074 62.0355 18.2981 62.1672 17.8515 62.536C17.3786 62.9048 17.4837 63.1682 17.4049 63.8268C17.3523 64.301 18.1404 64.301 18.193 63.8004Z" fill="black"/>
<path d="M25.3651 69.0426C25.2863 71.0446 25.7329 72.994 25.26 74.996C24.8134 76.84 23.9201 78.5523 23.0269 80.2119C22.7905 80.6597 23.4735 81.0548 23.71 80.607C24.6295 78.8684 25.549 77.1034 26.0219 75.2068C26.521 73.152 26.0744 71.1237 26.1532 69.0426C26.1795 68.5157 25.3913 68.5157 25.3651 69.0426Z" fill="black"/>
<path d="M23.0268 80.2381C22.4226 94.1207 26.3896 107.714 25.7591 121.596C25.7328 122.097 26.5209 122.097 26.5472 121.596C27.1777 107.714 23.2107 94.1207 23.815 80.2381C23.8413 79.7376 23.0531 79.7376 23.0268 80.2381Z" fill="black"/>
<path d="M10.1278 80.5279C10.9159 81.6343 11.7566 82.688 12.7024 83.6627C13.0439 84.0315 13.5956 83.4783 13.2541 83.1095C12.3609 82.1612 11.5464 81.1865 10.8108 80.1328C10.4956 79.7113 9.81255 80.1064 10.1278 80.5279Z" fill="black"/>
<path d="M13.149 83.452C11.6515 92.0134 10.9159 100.706 10.9422 109.4C10.9685 113.72 11.1786 118.066 11.599 122.36C11.9405 126.022 12.3609 129.868 14.2787 133.082C16.0125 136.006 19.06 138.218 22.5278 138.139C23.027 138.113 23.027 137.323 22.5278 137.349C17.6676 137.481 14.5414 133.134 13.4117 128.867C12.1507 124.178 12.0456 119.067 11.8617 114.247C11.4676 104.026 12.177 93.752 13.9371 83.6891C13.9897 83.1622 13.2278 82.9515 13.149 83.452Z" fill="black"/>
<path d="M8.18362 71.6241C5.71413 73.7052 3.32346 75.8916 1.06414 78.1834C0.696345 78.5522 1.2743 79.1054 1.61583 78.7366C3.90142 76.4448 6.26584 74.2584 8.73533 72.1773C9.1294 71.8612 8.57769 71.308 8.18362 71.6241Z" fill="black"/>
<path d="M0.827758 78.8948C0.433692 81.9505 2.74555 84.5321 5.81927 84.5058C6.31842 84.5058 6.31842 83.7155 5.81927 83.7155C3.16589 83.7418 1.27437 81.5027 1.61589 78.8948C1.6947 78.3943 0.906572 78.3943 0.827758 78.8948Z" fill="black"/>
<path d="M1.56333 78.7104C4.32179 78.7894 6.23957 81.2656 5.66161 83.9526C5.55653 84.4531 6.31839 84.6638 6.42348 84.1633C7.1328 80.9232 4.87348 78.0255 1.56333 77.9201C1.06418 77.9201 1.06418 78.7104 1.56333 78.7104Z" fill="black"/>
<path d="M6.73875 84.0316C9.73367 81.292 12.7811 78.5787 15.6972 75.76C17.0371 74.4692 18.3244 73.1521 19.5328 71.7296C20.1896 70.9657 21.8447 69.4641 21.871 68.4104C21.871 68.2787 21.7922 68.1207 21.6871 68.068C21.6345 68.0416 21.582 68.0153 21.5557 68.0153C21.3981 67.9363 21.1879 67.9363 21.0828 68.068C21.0566 68.0943 21.0303 68.1207 21.004 68.1734C20.6888 68.5685 21.2405 69.1217 21.5557 68.7266C21.582 68.7002 21.6083 68.6739 21.6345 68.6212C21.4769 68.6475 21.3193 68.6739 21.1617 68.6739C21.1091 68.4368 21.0303 68.4368 20.9252 68.7002C20.7939 68.8846 20.6625 69.069 20.5049 69.2534C20.1896 69.6485 19.9006 70.0437 19.5591 70.4388C19.0337 71.0974 18.4557 71.7296 17.904 72.3618C16.7481 73.6263 15.5396 74.8117 14.3049 75.9708C11.6252 78.4997 8.89299 80.9495 6.18706 83.4521C5.79299 83.8209 6.37095 84.3741 6.73875 84.0316Z" fill="black"/>
<path d="M7.08028 73.0993C7.26418 71.8349 7.44807 70.5704 7.63197 69.306C7.76333 68.3576 7.86842 67.3039 8.39384 66.461C9.60231 64.5116 11.3099 65.9078 12.2294 67.2249C12.6235 67.7781 12.9913 68.384 13.3854 68.9372C13.5955 69.2533 14.6201 70.386 14.4887 70.7812C14.6201 70.6758 14.7515 70.5968 14.8565 70.4914C14.804 70.4914 14.7777 70.4914 14.7252 70.4914C14.226 70.4651 14.226 71.2553 14.7252 71.2817C14.7777 71.2817 14.804 71.2817 14.8565 71.2817C15.0404 71.2817 15.1981 71.15 15.2243 70.9919C15.4082 70.3333 14.9616 69.9382 14.6201 69.4113C13.9633 68.4367 13.3328 67.4357 12.6498 66.4873C11.9404 65.5126 11.021 64.5643 9.7074 64.696C8.44638 64.8277 7.68451 65.8024 7.29045 66.9351C6.63367 68.8055 6.58113 70.9392 6.29215 72.8886C6.2396 73.3891 7.00147 73.5998 7.08028 73.0993Z" fill="black"/>
<path d="M8.31501 70.1227C9.02433 71.5189 10.2065 72.9414 11.8879 73.0468C13.2803 73.1521 14.5938 72.3618 14.9616 70.992C15.093 70.4915 14.3311 70.2808 14.1997 70.7813C13.8582 72.0457 12.4658 72.5199 11.3099 72.1248C10.2065 71.7296 9.49722 70.7549 8.99807 69.7539C8.76163 69.2797 8.07857 69.6749 8.31501 70.1227Z" fill="black"/>
<path d="M9.28711 64.9858C9.41846 63.695 10.8897 63.3526 11.888 63.695C12.9388 64.0375 13.7532 64.9858 14.4888 65.7498C15.0668 66.3557 16.1964 67.1986 16.3541 68.0416C16.5642 69.1743 15.1456 69.9383 14.1998 70.228C13.7269 70.3597 13.9108 71.1237 14.41 70.992C15.5659 70.6495 17.2473 69.6221 17.4312 68.2523C17.51 67.6991 17.1685 67.4094 16.8007 67.0142C16.0651 66.2239 15.3557 65.46 14.5939 64.6961C13.5693 63.6424 12.2557 62.5096 10.6795 62.7731C9.49727 62.9575 8.63033 63.7477 8.49897 64.9595C8.44643 65.4863 9.23457 65.4863 9.28711 64.9858Z" fill="black"/>
<path d="M10.7057 63.0365C11.0735 62.615 11.2574 62.0618 11.5989 61.6403C12.4396 60.5866 13.7531 61.5613 14.6201 62.1935C16.3014 63.379 18.0879 65.5391 16.5642 67.5938C16.2752 68.0153 16.9582 68.4104 17.2472 67.9889C18.876 65.7761 17.2735 63.2209 15.4082 61.7984C14.5413 61.1398 13.2277 59.9544 12.0455 60.2969C10.9947 60.5866 10.8108 61.7984 10.154 62.5097C9.81245 62.8521 10.3642 63.4053 10.7057 63.0365Z" fill="black"/>
<path d="M13.3591 60.6393C14.2786 59.5066 15.487 58.3211 16.9057 59.5066C17.8514 60.2705 18.4557 61.3505 18.7972 62.4833C18.9548 62.9574 19.6904 62.773 19.5591 62.2725C19.1125 60.7447 18.0879 58.9797 16.5642 58.3475C15.0142 57.7153 13.7269 58.9534 12.8074 60.0861C12.4921 60.4549 13.0438 61.0344 13.3591 60.6393Z" fill="black"/>
<path d="M19.165 60.7447C20.7938 59.3485 22.4226 57.9523 24.0514 56.5825C24.4455 56.2401 23.8675 55.6869 23.4997 56.0293C21.8709 57.4255 20.2421 58.8216 18.6133 60.1915C18.2193 60.5339 18.7972 61.0871 19.165 60.7447Z" fill="black"/>
<path d="M24.971 64.1165C26.521 62.9838 28.0184 61.772 29.4108 60.4549C29.7786 60.1124 29.2269 59.5592 28.8591 59.9017C27.493 61.1661 26.0744 62.3516 24.5769 63.4316C24.1566 63.7214 24.5506 64.4063 24.971 64.1165Z" fill="black"/>
<path d="M36.7667 62.1408C45.5302 62.1408 52.6345 55.0173 52.6345 46.2299C52.6345 37.4425 45.5302 30.3189 36.7667 30.3189C28.0032 30.3189 20.8989 37.4425 20.8989 46.2299C20.8989 55.0173 28.0032 62.1408 36.7667 62.1408Z" stroke="black" stroke-width="3" stroke-miterlimit="10"/>
<path d="M27.1515 48.1792C32.9837 44.4386 38.9473 40.9086 45.0421 37.5895C45.4888 37.3524 45.0947 36.6675 44.6481 36.9046C38.5532 40.1974 32.5896 43.7273 26.7575 47.4943C26.3371 47.7841 26.7312 48.469 27.1515 48.1792Z" fill="black"/>
<path d="M27.8081 55.081C32.6158 51.551 37.476 48.1528 42.4413 44.8337C42.8616 44.5439 42.4675 43.859 42.0472 44.1487C37.1082 47.4679 32.2217 50.8925 27.4141 54.396C26.9937 54.6858 27.3878 55.3707 27.8081 55.081Z" fill="black"/>
</g>
<defs>
<clipPath id="clip0_2_1323">
<rect width="143" height="252" fill="white"/>
</clipPath>
</defs>
</svg>
